<svg xmlns="http://www.w3.org/2000/svg" width="19.369" height="19.369" viewBox="0 0 19.369 19.369">
  <g id="Icon_ionic-ios-checkmark-circle-outline" data-name="Icon ionic-ios-checkmark-circle-outline" transform="translate(-3.375 -3.375)">
    <path id="Path_40" data-name="Path 40" d="M20.407,13.1l-.819-.843a.176.176,0,0,0-.13-.056h0a.169.169,0,0,0-.13.056l-5.68,5.722L11.58,15.917a.18.18,0,0,0-.261,0l-.829.829a.186.186,0,0,0,0,.265L13.1,19.618a.825.825,0,0,0,.545.265.864.864,0,0,0,.54-.256h0l6.225-6.258A.2.2,0,0,0,20.407,13.1Z" transform="translate(-2.385 -2.983)" fill="#5281b8"/>
    <path id="Path_41" data-name="Path 41" d="M13.059,4.679A8.377,8.377,0,1,1,7.132,7.132a8.325,8.325,0,0,1,5.927-2.454m0-1.3a9.684,9.684,0,1,0,9.684,9.684,9.683,9.683,0,0,0-9.684-9.684Z" fill="#5281b8"/>
  </g>
</svg>
