<svg xmlns="http://www.w3.org/2000/svg" width="305.041" height="63.865" viewBox="0 0 305.041 63.865">
  <g id="Logo" transform="translate(-3870 300)">
    <path id="Path_1465" data-name="Path 1465" d="M403.836,79.132a69.368,69.368,0,0,1,5.792-5.732q.048,24.437,0,48.882c-1.651-1.307-2.954-2.982-4.489-4.413-2.966-3.066-6.159-5.9-9.045-9.041.42-.408.855-.8,1.307-1.179,3.473,3.577,7.095,7.023,10.532,10.632-.06-.759-.192-1.515-.184-2.278.04-12.746-.024-25.5.032-38.247-.871.843-1.715,1.711-2.606,2.534Q404.5,79.715,403.836,79.132Z" transform="translate(3615.848 -373.4)"/>
    <path id="Path_1466" data-name="Path 1466" d="M44.35,102.185a10.723,10.723,0,0,1,11.735,0A7.288,7.288,0,0,1,59,107.213c-1.215.056-2.434.068-3.649.064a5.128,5.128,0,0,0-3.781-3.625c-1.739-.228-3.8-.324-5.188.935a3.941,3.941,0,0,0-1.355,3.254,4.017,4.017,0,0,0,3,3.649c2.866,1.171,6.1,1.479,8.7,3.242,3.337,2.378,3.178,7.826.268,10.484-2.938,2.674-7.462,2.954-11.024,1.467a7.155,7.155,0,0,1-4.6-6.531c1.183.016,2.37.024,3.553.036.392,1.687,1.319,3.493,3.094,4.037a7.582,7.582,0,0,0,5.608-.332c2.534-1.227,2.838-5.372.46-6.9-3.238-2.062-7.546-1.735-10.536-4.269C40.421,110,41.008,104.483,44.35,102.185Z" transform="translate(3828.787 -389.631)" fill="#5c7fb0"/>
    <path id="Path_1467" data-name="Path 1467" d="M107.9,101.621c5.068-2.258,11.643-1.123,15.336,3.118a8.832,8.832,0,0,1,2.058,3.785c-1.3-.008-2.594-.012-3.893,0a8.663,8.663,0,0,0-5.02-4.553c-3.222-.811-6.967-.452-9.481,1.911-3.969,3.737-4.293,10.456-1.283,14.873,2.7,3.957,8.621,4.844,12.634,2.478a9.009,9.009,0,0,0,3.142-3.653c1.315,0,2.626,0,3.941.008a11.026,11.026,0,0,1-6.355,6.819c-5.312,2.334-12.179,1.047-15.852-3.577-2.8-3.337-3.477-7.986-2.638-12.163A13.142,13.142,0,0,1,107.9,101.621Z" transform="translate(3793.503 -389.658)" fill="#5c7fb0"/>
    <path id="Path_1468" data-name="Path 1468" d="M180.69,101.445a19.746,19.746,0,0,1,3.505.016c-.088,5.652-.02,11.3-.036,16.951a6.255,6.255,0,0,0,2.562,5.688,8.481,8.481,0,0,0,6.651.516,5.856,5.856,0,0,0,3.657-5.768c.02-5.8.032-11.611,0-17.415a25.145,25.145,0,0,1,3.513.024c-.1,5.784.052,11.575-.072,17.363-.06,3.4-1.863,6.891-5.08,8.278-3.917,1.747-9.117,1.351-12.195-1.835a9.758,9.758,0,0,1-2.458-6.843C180.686,112.76,180.782,107.1,180.69,101.445Z" transform="translate(3745.154 -390.193)" fill="#5c7fb0"/>
    <path id="Path_1469" data-name="Path 1469" d="M249.312,101.4c1.107,0,2.218,0,3.325,0,0,7.858.028,15.716-.016,23.574,3.062.116,6.127.06,9.189.024.04.959.052,1.915.048,2.874q-6.283.006-12.558,0C249.32,119.046,249.3,110.225,249.312,101.4Z" transform="translate(3703.967 -390.209)" fill="#5c7fb0"/>
    <path id="Path_1470" data-name="Path 1470" d="M294.62,101.46c2.446-.188,4.9-.04,7.35-.092,2.874-.1,6.1.276,8.21,2.438,3.078,3.13,2.674,8.925-.991,11.435-3.258,2.2-7.35,1.323-11.032,1.471-.08,3.693-.056,7.382-.02,11.076a23.865,23.865,0,0,1-3.505,0c.044-8.777.072-17.555-.012-26.332m3.493,12.426c2.6-.1,5.268.312,7.81-.356,3.8-1.243,3.753-7.758-.08-8.937-2.5-.671-5.124-.192-7.674-.376C298.045,107.44,298.145,110.665,298.113,113.887Z" transform="translate(3676.761 -390.181)" fill="#5c7fb0"/>
    <path id="Path_1471" data-name="Path 1471" d="M350.137,101.37c5.911.036,11.827,0,17.738.02q0,1.415,0,2.838c-2.4,0-4.8.028-7.19-.024-.072,7.87-.06,15.74-.008,23.61-1.131.044-2.266.056-3.4.052-.16-7.87-.032-15.752-.064-23.626-2.354-.012-4.708-.028-7.059.024C350.13,103.3,350.121,102.333,350.137,101.37Z" transform="translate(3643.439 -390.191)" fill="#5c7fb0"/>
    <path id="Path_1472" data-name="Path 1472" d="M448.969,105.494c3.537-4.8,10.452-6.335,15.864-4.069a11.907,11.907,0,0,1,6.827,7.023c-1.355.008-2.71.008-4.065-.008a8.527,8.527,0,0,0-5.672-4.7c-2.822-.492-5.991-.3-8.306,1.571-3.6,2.634-4.433,7.626-3.541,11.759a9.607,9.607,0,0,0,3.833,5.752,10.428,10.428,0,0,0,9.085,1.071,8.523,8.523,0,0,0,4.585-4.337c1.359-.032,2.718-.04,4.081-.008a11.744,11.744,0,0,1-5.772,6.459,14.061,14.061,0,0,1-14.473-1.123C445.48,120.53,444.533,111.229,448.969,105.494Z" transform="translate(3585.767 -389.606)" fill="#5c7fb0"/>
    <path id="Path_1473" data-name="Path 1473" d="M579.47,101.275a12.27,12.27,0,0,1,3.589.032c3.833,5.632,7.554,11.347,11.343,17.011.819,1.131,1.371,2.5,2.546,3.329.148-6.815.032-13.638.064-20.452,1.151,0,2.3-.012,3.457-.032,0,8.865.048,17.734-.02,26.6-1.155-.028-2.306-.04-3.453-.06-4.652-7.019-9.269-14.065-13.981-21.044-.108,7.035.064,14.073-.088,21.108-1.151-.016-2.3-.044-3.449-.108C579.542,118.865,579.566,110.068,579.47,101.275Z" transform="translate(3505.764 -390.06)" fill="#5c7fb0"/>
    <path id="Path_1474" data-name="Path 1474" d="M646.5,101.307c6.047-.192,12.1-.024,18.154-.084v2.842c-2.454.048-4.908-.048-7.358.056.052,7.878,0,15.752.028,23.63-1.135.008-2.266.012-3.4.02-.272-7.894-.016-15.808-.116-23.71-2.414.028-4.828.016-7.242.02C646.552,103.154,646.532,102.23,646.5,101.307Z" transform="translate(3465.525 -390.096)" fill="#5c7fb0"/>
    <path id="Path_1475" data-name="Path 1475" d="M759.512,101.15c2.982.088,5.971,0,8.957.048a9.835,9.835,0,0,1,6.215,2.09c3.03,2.522,3.234,7.5.879,10.536-1.071,1.555-2.926,2.242-4.64,2.822,2.034,3.745,4.568,7.226,6.391,11.075-1.315.012-2.622,0-3.933,0-2.15-3.613-4.169-7.3-6.355-10.9-1.375.028-2.75.016-4.117.084.036,3.605.116,7.214-.04,10.816-1.147.008-2.29,0-3.429-.04.1-8.845-.044-17.69.072-26.536m3.413,2.946c.024,3.317.052,6.635-.012,9.952,2.522,0,5.132.34,7.594-.356,4.125-1.207,4.185-8.29-.08-9.349C767.966,103.848,765.419,104.136,762.925,104.1Z" transform="translate(3397.727 -390.059)" fill="#5c7fb0"/>
    <path id="Path_1476" data-name="Path 1476" d="M526.708,104.551c-.032-1.015-.036-2.034-.016-3.05q7.14-.048,14.285,0a13.985,13.985,0,0,1-.112,2.978C536.156,104.663,531.424,104.5,526.708,104.551Z" transform="translate(3537.454 -390.254)"/>
    <path id="Path_1477" data-name="Path 1477" d="M706.212,101.486c4.776.008,9.557-.06,14.333.036,0,1-.02,2.01-.052,3.014-4.744.044-9.489-.008-14.233.028A25.54,25.54,0,0,1,706.212,101.486Z" transform="translate(3429.695 -390.251)"/>
    <path id="Path_1478" data-name="Path 1478" d="M526.78,131.194c.1-.116.284-.348.376-.464,4.2-.072,8.4,0,12.606-.028.016.907.036,1.815.068,2.722-3.2.132-6.391.036-9.589.052-.056,3.03-.024,6.055-.024,9.085,3.585.044,7.171-.092,10.756.064-.024.915-.028,1.827-.012,2.742-4.688.144-9.381-.008-14.073.084C526.58,140.715,526.772,135.942,526.78,131.194Z" transform="translate(3537.433 -407.796)" fill="#5c7fb0"/>
    <path id="Path_1479" data-name="Path 1479" d="M706.454,145.4c.036-4.916-.06-9.832.052-14.749,4.333.052,8.665.016,13,.024q-.012,1.4-.044,2.794c-3.186-.012-6.371-.028-9.557,0q-.018,4.521,0,9.049c3.537.024,7.079,0,10.62.008q-.006,1.439,0,2.878C715.838,145.383,711.146,145.4,706.454,145.4Z" transform="translate(3429.537 -407.768)" fill="#5c7fb0"/>
    <path id="Path_1480" data-name="Path 1480" d="M177.238,209.77c.608-.028,1.215-.056,1.827-.08,1.183,3.038,2.194,6.135,3.273,9.209a5.224,5.224,0,0,1-1.767-.128,13.432,13.432,0,0,1-.631-1.735c-1.163-.016-2.326-.02-3.485-.024q-.312.923-.62,1.851c-.58.016-1.159.028-1.735.04.931-3.082,2.134-6.075,3.138-9.133m-.344,5.951q1.289-.006,2.574-.016a36.485,36.485,0,0,1-1.2-3.945C177.805,213.079,177.354,214.4,176.894,215.721Z" transform="translate(3749.11 -455.216)"/>
    <path id="Path_1481" data-name="Path 1481" d="M213.744,209.71a8.731,8.731,0,0,1,1.615.112c1.543,2.054,2.75,4.337,4.277,6.4-.064-2.15-.036-4.3-.032-6.443.412,0,1.231,0,1.639,0-.012,3.054.028,6.107-.016,9.157-.683-.056-1.571.236-1.963-.536-1.339-1.771-2.3-3.813-3.773-5.5-.024,1.975-.028,3.949.016,5.923-.6.016-1.2.036-1.787.056C213.768,215.829,213.724,212.772,213.744,209.71Z" transform="translate(3725.326 -455.228)"/>
    <path id="Path_1482" data-name="Path 1482" d="M287.21,210.224c1.811-1.527,5.5-.911,5.624,1.843-.552,0-1.1,0-1.651,0-.456-.56-.951-1.307-1.783-1.179a1.166,1.166,0,0,0-.971,1.807c1.2.739,2.794.735,3.849,1.759a2.922,2.922,0,0,1,.408,2.642c-1.067,2.862-6.459,2.17-6.163-1.143.352.024,1.055.068,1.411.092.572.56.979,1.575,1.97,1.375a1.236,1.236,0,0,0,.975-2.034c-1.447-.64-3.15-.839-4.233-2.118C286.638,212.25,286.382,211.019,287.21,210.224Z" transform="translate(3681.629 -455.046)"/>
    <path id="Path_1483" data-name="Path 1483" d="M340.543,209.845c.951-2.238,5.364-1.8,5.068.987-.412-.008-1.231-.028-1.643-.036-.284-.32-.316-1.211-.975-.931-.8-.2-.963.855-.608,1.335a33.846,33.846,0,0,0,2.974,3.182c.288-.452.576-.9.863-1.351.6-.008,1.2-.02,1.795-.024-.364.719-.767,1.419-1.139,2.134-.452.416.132.8.368,1.091.5.524,1.011,1.043,1.495,1.591-.723.02-1.443.028-2.158.032l-.931-.955c-1.739,1.479-4.908,1.8-6.291-.3-1.059-1.539.04-3.6,1.611-4.253a3.575,3.575,0,0,1-.428-2.5m.524,6.179c.839,1.107,2.514.536,3.377-.272a16.565,16.565,0,0,0-2.326-2.258A1.625,1.625,0,0,0,341.067,216.024Z" transform="translate(3650.155 -454.451)"/>
    <path id="Path_1484" data-name="Path 1484" d="M435.576,209.507c1.687-.04,3.373-.084,5.056.036-.016.324-.052.971-.068,1.295-1.687,0-3.377.052-5.064-.056C435.524,210.358,435.548,209.931,435.576,209.507Z" transform="translate(3592.19 -455.081)"/>
    <path id="Path_1485" data-name="Path 1485" d="M531.492,209.53a4.627,4.627,0,0,1,4.237,1.367c2.294,2.178,1.455,6.739-1.647,7.686a4.781,4.781,0,0,1-6.111-2.362c-1.347-2.682.456-6.4,3.521-6.691m.5,1.459c-2.294.1-3.286,2.962-2.322,4.812.859,2.154,4.353,2.15,5.268.04C536.1,213.763,534.553,210.577,531.991,210.989Z" transform="translate(3536.951 -455.084)"/>
    <path id="Path_1486" data-name="Path 1486" d="M611.3,209.482a4.72,4.72,0,0,1,2.154,9.161,4.727,4.727,0,0,1-6.139-3.421c-.635-2.578,1.231-5.592,3.985-5.74m.5,1.467a3.1,3.1,0,0,0-2.8,3.821c.128,2.37,3.5,3.569,5.044,1.743C616,214.674,614.683,210.637,611.8,210.949Z" transform="translate(3489.124 -455.056)"/>
    <path id="Path_1487" data-name="Path 1487" d="M723,209.25c.528,0,1.063,0,1.6,0,0,3.03-.02,6.059.016,9.093-.544,0-1.087,0-1.623,0C723,215.317,722.982,212.284,723,209.25Z" transform="translate(3419.608 -454.952)"/>
    <path id="Path_1488" data-name="Path 1488" d="M747.378,210.677a4.936,4.936,0,0,1,4.956-1,5.9,5.9,0,0,1,2.722,2.462,13.235,13.235,0,0,1-1.879.276c-.659-.739-1.411-1.575-2.5-1.483-2.558-.152-4.013,3.341-2.394,5.208a2.877,2.877,0,0,0,4.832-.18c.616.012,1.235.032,1.859.056-1.035,3.1-5.5,3.8-7.674,1.519A4.92,4.92,0,0,1,747.378,210.677Z" transform="translate(3405.827 -455.056)"/>
    <path id="Path_1489" data-name="Path 1489" d="M786.9,211.258c1.087-2.81,6.231-2.406,6.411.8l-1.731-.012c-.468-.556-.943-1.307-1.783-1.159-.919-.124-1.723,1.151-.947,1.807,1.351.831,3.257.771,4.253,2.178a2.694,2.694,0,0,1-1.191,3.553,3.728,3.728,0,0,1-5.36-2.046,4.191,4.191,0,0,1,1.767-.452c.248,1.511,2.71,2.178,3.205.54.316-1.463-1.415-1.439-2.338-1.811C787.705,214.4,786.118,212.817,786.9,211.258Z" transform="translate(3381.452 -455.029)"/>
    <path id="Path_1490" data-name="Path 1490" d="M41,209.81h1.7c.036,3.066.072,6.135-.016,9.2-.552-.016-1.1-.032-1.651-.04C40.927,215.917,40.987,212.864,41,209.81Z" transform="translate(3829.028 -455.288)"/>
    <path id="Path_1491" data-name="Path 1491" d="M65.864,209.77c.544.012,1.091.028,1.639.044,1.139,2.238,2.026,4.6,3.094,6.871.891-2.33,2.058-4.544,2.918-6.887.592.008,1.179.016,1.771.028.032,3.034.012,6.067.016,9.1-.408.012-1.223.032-1.631.044,0-2.066-.052-4.137.1-6.2-.608,1.719-1.4,3.4-2.1,5.1-.22.656-.651,1.439-1.5,1.091a15.5,15.5,0,0,1-1.555-3.018c-.372-.943-1.015-1.887-.8-2.946-.248.124-.492.252-.727.4.847,1.7.256,3.7.38,5.536-.4.016-1.2.052-1.607.068C65.88,215.921,65.872,212.848,65.864,209.77Z" transform="translate(3814.088 -455.264)"/>
    <path id="Path_1492" data-name="Path 1492" d="M109.959,209.785a31.045,31.045,0,0,1,4.313.1,2.759,2.759,0,0,1,1.575,4.233c-.875,1.475-2.826,1.139-4.269,1.259q.018,1.793-.016,3.585c-.532-.008-1.063-.016-1.595-.02-.116-3.054-.1-6.111-.008-9.161m1.6,1.415c.012.879.02,1.763.028,2.642a16.542,16.542,0,0,0,2.354-.092c.723-.3.711-1.139.783-1.791C113.888,211.064,112.677,211.116,111.558,211.2Z" transform="translate(3787.659 -455.259)"/>
    <path id="Path_1493" data-name="Path 1493" d="M144.97,209.806l1.595-.1c.016,2.614,0,5.232.008,7.846,1,.064,2.09-.208,3.03.192.02.288.064.867.084,1.155-1.595.044-3.186.072-4.776-.04C144.99,215.845,144.886,212.828,144.97,209.806Z" transform="translate(3766.633 -455.228)"/>
    <path id="Path_1494" data-name="Path 1494" d="M251.82,209.8c2.15.012,4.3-.04,6.443.044-.036.448-.068.9-.092,1.343-.767.008-1.535.016-2.3.028-.044,2.574.052,5.152-.064,7.726-.544.02-1.083.048-1.619.076-.1-2.6-.008-5.208-.052-7.81-.767-.012-1.535-.02-2.3-.032C251.836,210.834,251.828,210.146,251.82,209.8Z" transform="translate(3702.454 -455.28)"/>
    <path id="Path_1495" data-name="Path 1495" d="M400.378,209.284a22.789,22.789,0,0,1,4.64.176c2.21.536,2.4,4.1.356,4.972-1.051.56-2.282.348-3.425.388q.006,1.763.016,3.529h-1.591q-.036-4.533,0-9.065m1.6,1.359c-.016.907-.02,1.819,0,2.73a9.226,9.226,0,0,0,2.97-.388,3.52,3.52,0,0,0-.092-2.09A13.876,13.876,0,0,0,401.977,210.643Z" transform="translate(3613.287 -454.954)"/>
    <path id="Path_1496" data-name="Path 1496" d="M467.93,209.3c2.042.052,4.776-.739,6.2,1.183a2.928,2.928,0,0,1-1.575,4.273c.783,1.143,1.463,2.35,2.186,3.525-.663.016-1.327.028-1.986.044-.731-1.147-1.435-2.306-2.1-3.489l-.987-.084c-.024,1.187-.028,2.378-.024,3.565-.568-.008-1.127-.016-1.687-.028-.04-3,0-5.991-.024-8.989m1.751,1.283q-.054,1.445-.044,2.894c.891-.06,1.9.132,2.686-.416.648-.4.4-1.279.316-1.895C471.9,210.334,470.656,210.717,469.681,210.585Z" transform="translate(3572.722 -454.912)"/>
    <path id="Path_1497" data-name="Path 1497" d="M504.425,209.27c.608.04,1.215.08,1.831.124-.036,2.982.068,5.967-.064,8.949-.588.012-1.171.02-1.755.032C504.389,215.341,504.413,212.3,504.425,209.27Z" transform="translate(3550.824 -454.964)"/>
    <path id="Path_1498" data-name="Path 1498" d="M569.742,209.274c1.946.072,4.029-.32,5.843.588a4.754,4.754,0,0,1,.484,7.626c-1.815,1.4-4.237.7-6.339.855.02-3.022,0-6.047.012-9.069m1.643,1.375c-.02,2.162.008,4.325-.008,6.483,1.067-.12,2.266.1,3.206-.552a3.318,3.318,0,0,0,.492-5.1C574.139,210.441,572.628,210.7,571.385,210.649Z" transform="translate(3511.611 -454.951)"/>
    <path id="Path_1499" data-name="Path 1499" d="M649.03,209.372c.7.028,1.679-.42,2.086.392,1.379,2.006,2.794,4,4.109,6.055-.036-2.182,0-4.361-.016-6.539.432.012,1.295.032,1.723.044.008,3.022.056,6.043-.028,9.065-.6-.016-1.2-.036-1.8-.052-1.411-2.25-3.082-4.333-4.357-6.659.06,2.234.06,4.473.028,6.707l-1.715-.048C649.014,215.348,649.074,212.362,649.03,209.372Z" transform="translate(3464.006 -454.966)"/>
    <path id="Path_1500" data-name="Path 1500" d="M687.864,209.3c2.15,0,4.3-.008,6.459.016,0,.348,0,1.035-.008,1.379a11.636,11.636,0,0,1-2.61-.22,45.819,45.819,0,0,1,.184,7.874c-.572.016-1.139.032-1.7.052-.032-2.57.024-5.136-.032-7.7-.767-.008-1.531-.008-2.294-.012C687.86,210.339,687.86,209.643,687.864,209.3Z" transform="translate(3440.696 -454.977)"/>
    <path id="Path_1501" data-name="Path 1501" d="M435.632,218.866q2.326-.006,4.656,0c-.06.48-.12.963-.18,1.447-.963-.028-1.93-.028-2.894,0,0,.843.012,1.683.028,2.526,1.135-.012,2.27-.016,3.405-.02.008.324.024.967.028,1.291-1.683.012-3.365.008-5.044,0C435.632,222.363,435.62,220.613,435.632,218.866Z" transform="translate(3592.114 -460.723)"/>
  </g>
</svg>
